<svg width="20" height="24" viewBox="0 0 20 24" fill="none" xmlns="http://www.w3.org/2000/svg">
<g clip-path="url(#clip0_3661_466)">
<path d="M14.1128 2.05322H5.9783C3.73202 2.05322 1.91106 4.19908 1.91106 6.84612V16.4319C1.91106 19.079 3.73202 21.2248 5.9783 21.2248H14.1128C16.3591 21.2248 18.18 19.079 18.18 16.4319V6.84612C18.18 4.19908 16.3591 2.05322 14.1128 2.05322Z" stroke="white" stroke-width="2" stroke-linecap="round" stroke-linejoin="round"/>
<path d="M13.2994 11.0352C13.3997 11.833 13.2841 12.6477 12.9689 13.3636C12.6537 14.0795 12.1549 14.66 11.5436 15.0226C10.9323 15.3852 10.2395 15.5114 9.56382 15.3833C8.88812 15.2551 8.26391 14.8792 7.77997 14.3089C7.29603 13.7386 6.97701 13.003 6.86828 12.2068C6.75955 11.4105 6.86665 10.5941 7.17435 9.87376C7.48204 9.15337 7.97467 8.56565 8.58215 8.1942C9.18963 7.82275 9.88104 7.68648 10.558 7.80478C11.2486 7.92545 11.8879 8.30465 12.3815 8.88636C12.8752 9.46806 13.197 10.2214 13.2994 11.0352Z" stroke="white" stroke-width="2" stroke-linecap="round" stroke-linejoin="round"/>
<path d="M14.5195 6.36682H14.5277" stroke="white" stroke-width="2" stroke-linecap="round" stroke-linejoin="round"/>
</g>
<defs>
<clipPath id="clip0_3661_466">
<rect width="19.5228" height="23.0059" fill="white" transform="translate(0.284164 0.136108)"/>
</clipPath>
</defs>
</svg>
