<svg width="21" height="21" viewBox="0 0 21 21" fill="none" xmlns="http://www.w3.org/2000/svg">
<path d="M19.6204 1.87573C18.8414 2.52323 17.9789 3.01846 17.0661 3.34236C16.5762 2.67855 15.9252 2.20806 15.2009 1.99452C14.4767 1.78098 13.7143 1.8347 13.0169 2.1484C12.3194 2.4621 11.7205 3.02066 11.3012 3.74852C10.8819 4.47639 10.6624 5.33844 10.6724 6.2181V7.17668C9.24291 7.22036 7.82641 6.84674 6.54908 6.08911C5.27174 5.33148 4.17324 4.21336 3.3514 2.83431C3.3514 2.83431 0.0976048 11.4615 7.41864 15.2958C5.74337 16.6359 3.74768 17.3078 1.7245 17.213C9.04554 22.0059 17.9935 17.213 17.9935 6.18934C17.9927 5.92233 17.9709 5.65598 17.9284 5.39372C18.7586 4.4289 19.3445 3.21075 19.6204 1.87573V1.87573Z" stroke="white" stroke-width="2" stroke-linecap="round" stroke-linejoin="round"/>
</svg>
